<svg width="32" height="32" viewBox="0 0 32 32" fill="none" xmlns="http://www.w3.org/2000/svg">
<path d="M29.0945 15.8908C29.0941 22.5772 24.0941 28.2072 17.4545 28.9975V20.0641H19.8012C20.1301 20.0659 20.4069 19.818 20.4412 19.4908L20.6945 17.5575C20.7121 17.3739 20.6543 17.191 20.5345 17.0508C20.4118 16.9058 20.2311 16.8227 20.0412 16.8241H17.4545V14.5575C17.4545 13.8211 18.0514 13.2241 18.7878 13.2241H20.1212C20.2932 13.2277 20.4594 13.1619 20.5823 13.0414C20.7053 12.921 20.7745 12.7562 20.7745 12.5841V10.4375C20.7702 10.1035 20.5194 9.82417 20.1878 9.78412C20.1878 9.78412 19.2278 9.70412 18.0812 9.70412C15.2278 9.70412 13.6545 11.3975 13.6545 14.4775V16.8241H10.9878C10.627 16.8241 10.3345 17.1166 10.3345 17.4775V19.4108C10.3345 19.7716 10.627 20.0641 10.9878 20.0641H13.5745V28.8908C6.68311 27.669 1.93985 21.2855 2.75854 14.3347C3.57723 7.38392 9.67385 2.27721 16.6605 2.69002C23.6472 3.10283 29.1 8.89194 29.0945 15.8908Z" fill="#E22C3E"/>
</svg>
