<svg width="40" height="40" viewBox="0 0 40 40" fill="none" xmlns="http://www.w3.org/2000/svg">
<path d="M20.1667 34.6667C19.3334 34.6667 18.3334 34.3333 17.6667 33.6667C6.83337 24.1667 6.66671 24 6.66671 23.8333L6.50004 23.6667C4.50004 21.6667 3.33337 18.8333 3.33337 16V15.6667C3.50004 9.66667 8.33337 5 14.3334 5C16.1667 5 18.6667 6 20.1667 8C21.6667 6 24.3334 5 26.1667 5C32.1667 5 36.8334 9.66667 37.1667 15.6667V16C37.1667 19 36 21.6667 34 23.8333L33.8334 24C33.6667 24.1667 32.3334 25.3333 22.8334 33.8333C22 34.3333 21.1667 34.6667 20.1667 34.6667ZM9.16671 23.3333C9.83337 24 13.1667 26.3333 19.3334 31.6667C19.8334 32.1667 20.5 32.1667 21 31.6667C27.3334 26 31 22.8333 31.8334 22.1667L32 22C33.6667 20.3333 34.5 18.1667 34.5 16V15.6667C34.3334 11 30.6667 7.5 26 7.5C24.8334 7.5 22.5 8.33333 21.6667 10.1667C21.3334 10.8333 20.6667 11.1667 20 11.1667C19.3334 11.1667 18.6667 10.8333 18.3334 10.1667C17.5 8.5 15.3334 7.5 14 7.5C9.50004 7.5 5.66671 11.1667 5.50004 15.6667V16.1667C5.50004 18.3333 6.50004 20.5 8.00004 22L9.16671 23.3333Z" fill="#E22C3E"/>
</svg>
