<svg width="40" height="40" viewBox="0 0 40 40" fill="none" xmlns="http://www.w3.org/2000/svg">
<path fill-rule="evenodd" clip-rule="evenodd" d="M4.54894 13.137C7.01521 7.19615 12.818 3.32652 19.2505 3.33326C23.4659 3.33326 27.5084 5.00896 30.4876 7.99127C33.4668 10.9736 35.1383 15.0179 35.1338 19.2333C35.1338 25.6657 31.2581 31.4645 25.3146 33.9245C19.3712 36.3846 12.531 35.0212 7.98494 30.4704C3.43889 25.9195 2.08267 19.0779 4.54894 13.137ZM31.7172 24.0666C32.2991 22.522 32.5928 20.8838 32.5838 19.2333C32.6213 16.1978 31.6218 13.2403 29.7505 10.8499C29.0005 12.0999 27.5838 13.9666 25.8338 13.9666C25.1606 13.9125 24.483 13.9802 23.8338 14.1666V14.3499C23.8338 14.6499 24.6505 15.4666 25.0838 15.8999C26.163 16.7047 26.8816 17.9023 27.0838 19.2333C27.0838 21.8999 27.3505 22.7166 27.5838 22.9166C29.0246 23.0197 30.4302 23.4107 31.7172 24.0666ZM5.91716 19.2333C5.90201 16.2683 6.87554 13.383 8.68383 11.0333C9.15608 11.8946 10.0685 12.4214 11.0505 12.3999C12.3991 13.0799 13.5911 14.0335 14.5505 15.1999C13.8446 15.634 13.2047 16.1672 12.6505 16.7833C12.5991 16.8328 12.543 16.8873 12.4837 16.9451C12.0239 17.3929 11.3643 18.0352 11.0838 18.0499C10.3122 18.0266 9.56519 18.3229 9.01932 18.8687C8.47345 19.4146 8.17717 20.1616 8.2005 20.9333C8.20289 21.1243 8.24848 21.3123 8.33383 21.4833L9.83383 24.4833C9.85297 26.2088 10.1282 27.9219 10.6505 29.5666C7.61013 27.0008 5.87432 23.2114 5.91716 19.2333ZM14.7005 31.7666C16.1591 32.296 17.6988 32.5667 19.2505 32.5666V32.6166C23.8375 32.6474 28.1184 30.3182 30.5838 26.4499C29.5785 25.9631 28.5052 25.6316 27.4005 25.4666C24.5172 25.4666 24.5172 21.3333 24.5172 19.3333C24.5172 19.0312 23.7742 18.2894 23.315 17.8311C23.2928 17.8089 23.2713 17.7874 23.2505 17.7666C22.1789 16.9576 21.4669 15.761 21.2672 14.4333C21.2672 11.5499 24.2005 11.5499 25.7672 11.5499C26.2005 11.5333 27.2338 10.2999 27.8672 9.06659C22.9251 4.88303 15.6917 4.85492 10.7172 8.99993C10.7424 9.14327 10.7424 9.28992 10.7172 9.43326C10.7338 9.83326 10.9172 9.83326 11.1005 9.83326C13.1005 9.83326 17.5838 13.8999 17.6505 15.7999C17.6532 16.2284 17.4725 16.6375 17.154 16.9242C16.8355 17.2108 16.4096 17.3475 15.9838 17.2999C15.6838 17.3166 14.8672 18.1333 14.4338 18.5666C13.6231 19.6391 12.4284 20.3559 11.1005 20.5666C10.9672 20.5666 10.7672 20.5666 10.7672 20.7333L12.2172 23.5166C12.3025 23.6875 12.3481 23.8756 12.3505 24.0666C12.3505 25.8833 12.7505 28.8333 13.6172 29.7166C14.2219 30.2405 14.6084 30.9719 14.7005 31.7666Z" fill="#E22C3E"/>
</svg>
