<svg width="40" height="40" viewBox="0 0 40 40" fill="none" xmlns="http://www.w3.org/2000/svg">
<path fill-rule="evenodd" clip-rule="evenodd" d="M11.25 19.5834C11.25 14.981 14.9809 11.2501 19.5833 11.2501C21.7934 11.2501 23.913 12.1281 25.4758 13.6909C27.0387 15.2537 27.9166 17.3733 27.9166 19.5834C27.9166 24.1858 24.1857 27.9167 19.5833 27.9167C14.9809 27.9167 11.25 24.1858 11.25 19.5834ZM14.194 21.8157C15.0969 23.9955 17.2239 25.4167 19.5833 25.4167C22.805 25.4167 25.4166 22.8051 25.4166 19.5834C25.4166 17.2241 23.9954 15.097 21.8156 14.1941C19.6358 13.2912 17.1268 13.7903 15.4585 15.4586C13.7902 17.1269 13.2911 19.636 14.194 21.8157Z" fill="#E22C3E"/>
<path d="M19.5833 9.16675C20.2699 9.15777 20.8243 8.60335 20.8333 7.91675V2.91675C20.8333 2.22639 20.2736 1.66675 19.5833 1.66675C18.8929 1.66675 18.3333 2.22639 18.3333 2.91675V7.91675C18.3423 8.60335 18.8967 9.15777 19.5833 9.16675Z" fill="#E22C3E"/>
<path d="M19.5833 30.0001C18.8967 30.0091 18.3423 30.5635 18.3333 31.2501V36.2501C18.3333 36.9404 18.8929 37.5001 19.5833 37.5001C20.2736 37.5001 20.8333 36.9404 20.8333 36.2501V31.2501C20.8243 30.5635 20.2699 30.0091 19.5833 30.0001Z" fill="#E22C3E"/>
<path d="M10.45 12.2167C10.938 12.7042 11.7286 12.7042 12.2166 12.2167C12.704 11.7287 12.704 10.9381 12.2166 10.4501L8.68329 6.91675C8.37167 6.58233 7.90237 6.44467 7.45948 6.55777C7.01659 6.67088 6.67076 7.01671 6.55765 7.4596C6.44454 7.90249 6.5822 8.3718 6.91663 8.68341L10.45 12.2167Z" fill="#E22C3E"/>
<path d="M28.7166 26.9501C28.2241 26.4911 27.4566 26.5047 26.9806 26.9807C26.5046 27.4567 26.491 28.2242 26.95 28.7167L30.4833 32.2501C30.7164 32.4861 31.0348 32.6183 31.3666 32.6167C31.6988 32.6202 32.0179 32.4878 32.25 32.2501C32.7374 31.7621 32.7374 30.9714 32.25 30.4834L28.7166 26.9501Z" fill="#E22C3E"/>
<path d="M9.16663 19.5834C9.15765 18.8968 8.60323 18.3424 7.91663 18.3334H2.91663C2.22627 18.3334 1.66663 18.8931 1.66663 19.5834C1.66663 20.2738 2.22627 20.8334 2.91663 20.8334H7.91663C8.60323 20.8244 9.15765 20.27 9.16663 19.5834Z" fill="#E22C3E"/>
<path d="M36.25 18.3334H31.25C30.5596 18.3334 30 18.8931 30 19.5834C30 20.2738 30.5596 20.8334 31.25 20.8334H36.25C36.9403 20.8334 37.5 20.2738 37.5 19.5834C37.5 18.8931 36.9403 18.3334 36.25 18.3334Z" fill="#E22C3E"/>
<path d="M10.45 26.9501L6.91662 30.4834C6.4292 30.9714 6.4292 31.7621 6.91662 32.2501C7.14867 32.4878 7.4678 32.6202 7.79996 32.6167C8.13173 32.6183 8.45015 32.4861 8.68329 32.2501L12.2166 28.7167C12.6756 28.2242 12.662 27.4567 12.186 26.9807C11.71 26.5047 10.9425 26.4911 10.45 26.9501Z" fill="#E22C3E"/>
<path d="M27.9166 12.5834C28.2484 12.585 28.5668 12.4528 28.8 12.2167L32.25 8.68341C32.5844 8.3718 32.722 7.90249 32.6089 7.4596C32.4958 7.01671 32.15 6.67088 31.7071 6.55777C31.2642 6.44467 30.7949 6.58233 30.4833 6.91675L26.95 10.4501C26.4625 10.9381 26.4625 11.7287 26.95 12.2167C27.2029 12.4746 27.5563 12.6087 27.9166 12.5834Z" fill="#E22C3E"/>
</svg>
