<svg width="40" height="40" viewBox="0 0 40 40" fill="none" xmlns="http://www.w3.org/2000/svg">
<path fill-rule="evenodd" clip-rule="evenodd" d="M24.2671 23.9333H24.3671C27.6416 22.4878 30.2532 19.8643 31.6837 16.5833V23.8499C31.697 28.5076 28.9388 32.7269 24.6671 34.5833H24.5504C23.138 35.1813 21.6175 35.482 20.0837 35.4666C18.6012 35.4706 17.1331 35.1759 15.7671 34.5999L15.3337 34.4166C11.0713 32.6333 8.30673 28.4536 8.33372 23.8333V23.5333C8.3657 21.1671 9.32997 18.9092 11.0171 17.2499L11.3171 16.9666C13.9691 14.3692 16.1564 11.3364 17.7837 7.99992L20.0671 3.33325C20.0671 3.33325 22.4337 6.66659 24.6337 9.99992C27.3168 13.9809 26.4244 19.3642 22.6004 22.2666H22.4004C22.0034 22.7662 22.0465 23.4847 22.5004 23.9333C22.6902 24.0936 22.9362 24.1715 23.1837 24.1499C23.5539 24.1344 23.9194 24.0613 24.2671 23.9333ZM23.5337 32.2666H23.6504V32.2499C26.9828 30.7893 29.1441 27.505 29.1671 23.8666C28.0431 24.8558 26.7578 25.645 25.3671 26.1999L25.1504 26.2833C24.523 26.5275 23.8569 26.6574 23.1837 26.6666C22.2714 26.6988 21.3859 26.3554 20.7337 25.7166C19.3721 24.3708 19.2428 22.2155 20.4337 20.7166C20.5791 20.5348 20.7472 20.3724 20.9337 20.2333H21.0504C23.8608 18.1369 24.5219 14.1992 22.5504 11.2999C21.8337 10.2333 21.1171 9.16659 20.4504 8.21659L20.0337 9.08325C18.2698 12.6386 15.914 15.8679 13.0671 18.6333L12.7671 18.9166C11.5565 20.1112 10.8625 21.7327 10.8337 23.4333V23.7499C10.7886 27.3818 12.951 30.6782 16.3004 32.0833L16.7337 32.2666C18.9065 33.1891 21.3609 33.1891 23.5337 32.2666Z" fill="#E22C3E"/>
</svg>
