<svg width="40" height="40" viewBox="0 0 40 40" fill="none" xmlns="http://www.w3.org/2000/svg">
<path fill-rule="evenodd" clip-rule="evenodd" d="M34.5667 11.4334L36.6667 25.3334C37.5167 31.4168 33.3333 36.9501 27.6667 37.0001H12.2333C6.66665 37.0001 2.43332 31.4168 3.33332 25.3334L5.43332 11.4334C5.93186 6.83738 9.71445 3.29564 14.3333 3.1001H25.6667C30.2855 3.29564 34.0681 6.83738 34.5667 11.4334ZM27.7167 34.4501C29.5062 34.4243 31.1941 33.6138 32.3333 32.2334C33.8612 30.424 34.5245 28.0385 34.15 25.7001L32.1 11.8001C31.8073 8.40724 29.0666 5.74464 25.6667 5.5501H14.3333C10.9334 5.74464 8.19271 8.40724 7.89998 11.8001L5.84998 25.7001C5.4755 28.0385 6.13881 30.424 7.66665 32.2334C8.80584 33.6138 10.4938 34.4243 12.2833 34.4501H27.7167Z" fill="#E22C3E"/>
<path d="M25.25 11.7668C24.5596 11.7668 24 12.3264 24 13.0168C24 15.2259 22.2091 17.0168 20 17.0168C17.7908 17.0168 16 15.2259 16 13.0168C16 12.3264 15.4403 11.7668 14.75 11.7668C14.0596 11.7668 13.5 12.3264 13.5 13.0168C13.5 15.339 14.7389 17.4848 16.75 18.6459C18.7611 19.807 21.2389 19.807 23.25 18.6459C25.2611 17.4848 26.5 15.339 26.5 13.0168C26.491 12.3302 25.9366 11.7757 25.25 11.7668Z" fill="#E22C3E"/>
</svg>
