<svg width="40" height="40" viewBox="0 0 40 40" fill="none" xmlns="http://www.w3.org/2000/svg">
<path fill-rule="evenodd" clip-rule="evenodd" d="M32.7333 11.4666C32.7098 9.88158 31.8889 8.41522 30.55 7.56659C28.7764 6.39507 26.542 6.16479 24.5667 6.94992L16.9833 9.99992C15.0576 10.6786 13.7381 12.46 13.65 14.4999V26.6666C12.9984 26.3191 12.2718 26.136 11.5333 26.1333C8.96521 26.1333 6.88333 28.2151 6.88333 30.7833C6.88333 33.3514 8.96521 35.4333 11.5333 35.4333C14.1015 35.4333 16.1833 33.3514 16.1833 30.7833V14.4666C16.2756 13.4518 16.9746 12.5946 17.95 12.2999L25.5167 9.28326C26.7235 8.79963 28.0898 8.93004 29.1833 9.63326C29.8247 10.0283 30.2301 10.7142 30.2667 11.4666V23.5666C29.5985 23.2135 28.8557 23.025 28.1 23.0166C25.5564 23.0011 23.4725 25.0323 23.4226 27.5754C23.3728 30.1185 25.3755 32.2297 27.9178 32.314C30.46 32.3982 32.5981 30.4241 32.7167 27.8833C32.7245 27.8057 32.7245 27.7275 32.7167 27.6499L32.7333 11.4666ZM11.5333 32.9166C10.3596 32.9325 9.39003 32.0041 9.35509 30.8308C9.32016 29.6575 10.2328 28.673 11.4054 28.6191C12.578 28.5651 13.5771 29.4617 13.65 30.6333V30.9166C13.588 32.0398 12.6582 32.9183 11.5333 32.9166ZM26.0685 28.4843C26.4065 29.2871 27.1956 29.8067 28.0667 29.7999C28.6354 29.7999 29.1805 29.5729 29.5811 29.1692C29.9816 28.7655 30.2044 28.2186 30.2 27.6499C30.2 26.7788 29.6743 25.9938 28.8689 25.662C28.0634 25.3303 27.1374 25.5173 26.5238 26.1356C25.9103 26.754 25.7304 27.6815 26.0685 28.4843Z" fill="#E22C3E"/>
</svg>
