<svg width="40" height="40" viewBox="0 0 40 40" fill="none" xmlns="http://www.w3.org/2000/svg">
<path fill-rule="evenodd" clip-rule="evenodd" d="M8.33334 19.9999C8.33334 15.3975 12.0643 11.6666 16.6667 11.6666C18.8768 11.6666 20.9964 12.5446 22.5592 14.1074C24.122 15.6702 25 17.7898 25 19.9999C25 24.6023 21.269 28.3333 16.6667 28.3333C12.0643 28.3333 8.33334 24.6023 8.33334 19.9999ZM10.8333 19.9999C10.8333 23.2216 13.445 25.8333 16.6667 25.8333C18.2138 25.8333 19.6975 25.2187 20.7915 24.1247C21.8854 23.0307 22.5 21.547 22.5 19.9999C22.5 16.7783 19.8883 14.1666 16.6667 14.1666C13.445 14.1666 10.8333 16.7783 10.8333 19.9999Z" fill="#E22C3E"/>
<path d="M25.078 12.6958C25.3818 11.1361 26.7443 10.0078 28.3333 9.99992C29.9223 10.0078 31.2849 11.1361 31.5887 12.6958C31.8926 14.2555 31.0532 15.8129 29.5833 16.4166V24.5333C29.5762 24.8632 29.4453 25.1785 29.2167 25.4166L26.25 28.3666C25.762 28.854 24.9714 28.854 24.4833 28.3666C23.9959 27.8786 23.9959 27.0879 24.4833 26.5999L27.0833 23.9999V16.4166C25.6135 15.8129 24.7741 14.2555 25.078 12.6958Z" fill="#E22C3E"/>
<path fill-rule="evenodd" clip-rule="evenodd" d="M11.6667 3.33325H28.3333C30.5435 3.33325 32.6631 4.21123 34.2259 5.77403C35.7887 7.33683 36.6667 9.45645 36.6667 11.6666V28.3333C36.6667 30.5434 35.7887 32.663 34.2259 34.2258C32.6631 35.7886 30.5435 36.6666 28.3333 36.6666H11.6667C7.0643 36.6666 3.33334 32.9356 3.33334 28.3333V11.6666C3.33334 7.06421 7.0643 3.33325 11.6667 3.33325ZM28.3333 34.1666C31.555 34.1666 34.1667 31.5549 34.1667 28.3333V11.6666C34.1667 8.44492 31.555 5.83325 28.3333 5.83325H11.6667C8.44502 5.83325 5.83334 8.44492 5.83334 11.6666V28.3333C5.83334 31.5549 8.44502 34.1666 11.6667 34.1666H28.3333Z" fill="#E22C3E"/>
</svg>
