<svg width="40" height="40" viewBox="0 0 40 40" fill="none" xmlns="http://www.w3.org/2000/svg">
<path d="M13.5333 16.7999C15.3743 16.7999 16.8666 15.3075 16.8666 13.4666C16.8666 11.6256 15.3743 10.1333 13.5333 10.1333C11.6924 10.1333 10.2 11.6256 10.2 13.4666C10.2 15.3075 11.6924 16.7999 13.5333 16.7999Z" fill="#E22C3E"/>
<path fill-rule="evenodd" clip-rule="evenodd" d="M23.7333 3.33325H16.6666C9.30285 3.33325 3.33331 9.30279 3.33331 16.6666V23.7333C3.33331 31.097 9.30285 37.0666 16.6666 37.0666H23.7333C31.0971 37.0666 37.0666 31.097 37.0666 23.7333V16.6666C37.0666 13.1304 35.6619 9.73898 33.1614 7.2385C30.6609 4.73801 27.2695 3.33325 23.7333 3.33325ZM16.6666 5.83325H23.7333C29.1432 5.84171 33.7176 9.83985 34.45 15.1999H31.8666C24.9113 15.2056 18.4798 18.897 14.9666 24.8999C12.7727 23.1571 10.0519 22.211 7.24998 22.2166H5.83331V16.6666C5.84249 10.6873 10.6874 5.84243 16.6666 5.83325ZM7.24998 24.7166H5.88331C6.24536 28.647 8.71644 32.0695 12.3333 33.6499C12.4528 31.4252 12.9545 29.2376 13.8166 27.1833C11.9974 25.5951 9.6649 24.7189 7.24998 24.7166ZM23.7333 34.5666H16.6666C16.0401 34.5641 15.4151 34.5027 14.8 34.3833C15.0081 25.1022 22.5832 17.6824 31.8666 17.6666H34.5666V23.7333C34.5575 29.7125 29.7126 34.5574 23.7333 34.5666Z" fill="#E22C3E"/>
</svg>
