<svg width="15" height="16" viewBox="0 0 15 16" fill="none" xmlns="http://www.w3.org/2000/svg">
<path d="M10.0358 5.78031H4.73597C4.49205 5.78031 4.29432 5.97804 4.29432 6.22196C4.29432 6.46588 4.49205 6.66362 4.73597 6.66362H10.0358C10.2798 6.66362 10.4775 6.46588 10.4775 6.22196C10.4775 5.97804 10.2798 5.78031 10.0358 5.78031Z" fill="#E22C3E"/>
<path fill-rule="evenodd" clip-rule="evenodd" d="M10.2655 3.07737H10.3303C11.9564 3.07737 13.2746 4.39561 13.2746 6.02174V11.3216C13.2746 12.9477 11.9564 14.266 10.3303 14.266H4.44153C3.66064 14.266 2.91173 13.9558 2.35955 13.4036C1.80737 12.8514 1.49716 12.1025 1.49716 11.3216V6.02174C1.49716 4.39561 2.8154 3.07737 4.44153 3.07737H4.49453V2.00562C4.49453 1.7617 4.69227 1.56396 4.93619 1.56396C5.18011 1.56396 5.37784 1.7617 5.37784 2.00562V3.07737H9.38219V2.00562C9.38219 1.7617 9.57993 1.56396 9.82385 1.56396C10.0678 1.56396 10.2655 1.7617 10.2655 2.00562V3.07737ZM10.3303 13.3827C11.4686 13.3827 12.3913 12.4599 12.3913 11.3216V6.02174C12.3913 4.88345 11.4686 3.96068 10.3303 3.96068H4.44153C3.30324 3.96068 2.38047 4.88345 2.38047 6.02174V11.3216C2.38047 12.4599 3.30324 13.3827 4.44153 13.3827H10.3303Z" fill="#E22C3E"/>
</svg>
