<svg width="40" height="40" viewBox="0 0 40 40" fill="none" xmlns="http://www.w3.org/2000/svg">
<path fill-rule="evenodd" clip-rule="evenodd" d="M34.1665 7.08331C34.1684 6.1604 33.7877 5.27799 33.1148 4.64625C32.442 4.01451 31.5374 3.68999 30.6165 3.74998H9.38314C8.46218 3.68999 7.55757 4.01451 6.88477 4.64625C6.21196 5.27799 5.83119 6.1604 5.83314 7.08331V21.35C5.81455 23.7396 7.72707 25.6968 10.1165 25.7333H15.6998V26.55C15.6599 27.1868 15.4529 27.8019 15.0998 28.3333C13.5876 30.7802 14.0132 33.9544 16.1165 35.9166C18.2894 37.9759 21.6935 37.9759 23.8665 35.9166C25.1087 34.7857 25.8116 33.1799 25.7998 31.5C25.832 30.3907 25.555 29.2942 24.9998 28.3333C24.612 27.7795 24.3922 27.1256 24.3665 26.45L24.2165 25.7L29.9498 25.85C32.3392 25.8134 34.2517 23.8563 34.2331 21.4666V19.5833L34.1665 7.08331ZM8.44981 7.08331C8.44981 6.83331 8.44981 6.36664 9.38314 6.36664H30.6165C31.5498 6.36664 31.5498 6.83331 31.5498 7.08331V16.9666H8.44981V7.08331ZM29.9998 23.3833C30.9662 23.2956 31.6969 22.4699 31.6665 21.5V19.5833H8.33314V21.35C8.31972 21.8391 8.50237 22.3133 8.84043 22.667C9.1785 23.0207 9.64393 23.2246 10.1331 23.2333H15.8331C17.1521 23.2607 18.2017 24.3475 18.1831 25.6666V26.4833C18.1561 27.6226 17.8096 28.7314 17.1831 29.6833C16.8404 30.2453 16.6615 30.8918 16.6665 31.55C16.6673 32.5385 17.0921 33.4791 17.8331 34.1333C19.0888 35.2291 20.9608 35.2291 22.2165 34.1333C22.9372 33.4688 23.3429 32.5302 23.3331 31.55C23.3563 30.8931 23.2007 30.2422 22.8831 29.6666C22.2547 28.7218 21.9079 27.6178 21.8831 26.4833V25.6666C21.8742 25.0272 22.1209 24.4107 22.5683 23.9539C23.0158 23.4971 23.627 23.2377 24.2665 23.2333L29.9998 23.3833Z" fill="#E22C3E"/>
<path d="M11.6666 7.26664C10.9763 7.26664 10.4166 7.82629 10.4166 8.51664V14.3C10.4166 14.9903 10.9763 15.55 11.6666 15.55C12.357 15.55 12.9166 14.9903 12.9166 14.3V8.51664C12.9076 7.83004 12.3532 7.27562 11.6666 7.26664Z" fill="#E22C3E"/>
<path d="M16.6666 7.26664C15.98 7.27562 15.4256 7.83004 15.4166 8.51664V11.4333C15.4166 12.1237 15.9763 12.6833 16.6666 12.6833C17.357 12.6833 17.9166 12.1237 17.9166 11.4333V8.51664C17.9076 7.83004 17.3532 7.27562 16.6666 7.26664Z" fill="#E22C3E"/>
</svg>
