<svg width="40" height="40" viewBox="0 0 40 40" fill="none" xmlns="http://www.w3.org/2000/svg">
<path d="M12.6324 15.1336C14.0131 15.1336 15.1324 14.0143 15.1324 12.6336C15.1324 11.2529 14.0131 10.1336 12.6324 10.1336C11.2517 10.1336 10.1324 11.2529 10.1324 12.6336C10.1324 14.0143 11.2517 15.1336 12.6324 15.1336Z" fill="#E22C3E"/>
<path fill-rule="evenodd" clip-rule="evenodd" d="M18.599 3.36693H18.4657L8.46571 4.08359C6.13664 4.292 4.29078 6.13785 4.08238 8.46693L3.34904 18.4669C3.25697 19.3871 3.57386 20.3012 4.21571 20.9669L18.2824 35.0336C18.8765 35.6059 19.6743 35.9178 20.499 35.9003C21.7609 35.8892 22.964 35.3659 23.8324 34.4503L34.449 23.8503C36.0982 22.483 36.357 20.0505 35.0324 18.3669L20.8824 4.20026C20.2853 3.6326 19.4895 3.32148 18.6657 3.33359L18.599 3.36693ZM18.6657 6.05026C18.7634 6.01955 18.8681 6.01955 18.9657 6.05026L33.049 20.1336C33.1853 20.7582 32.9522 21.4058 32.449 21.8003L21.799 32.4503C21.4482 32.8309 20.9654 33.0633 20.449 33.1003H20.1657L6.13238 18.9503C6.08755 18.8321 6.08755 18.7017 6.13238 18.5836L6.86571 8.58359C6.99655 7.67661 7.69615 6.95683 8.59905 6.80026L18.599 6.08359L18.6657 6.05026Z" fill="#E22C3E"/>
</svg>
