<svg width="40" height="40" viewBox="0 0 40 40" fill="none" xmlns="http://www.w3.org/2000/svg">
<path d="M28.0333 25.8082C27.4252 25.5026 26.6844 25.7397 26.3667 26.3416C26.0731 26.9547 26.3158 27.6903 26.9167 28.0082C28.3833 28.7582 29.2167 29.6749 29.2167 30.5582C29.2167 32.4416 25.2833 34.5416 20.0167 34.5416C14.75 34.5416 10.8 32.4582 10.8 30.6249C10.8 29.7582 11.6333 28.8249 13.1 28.0749C13.5398 27.8985 13.8421 27.4886 13.8807 27.0163C13.9192 26.544 13.6873 26.0905 13.2819 25.8452C12.8765 25.5999 12.3672 25.6049 11.9667 25.8582C9.94317 26.6209 8.53247 28.4716 8.33334 30.6249C8.33334 34.3249 13.3333 37.1082 20 37.1082C26.6667 37.1082 31.6667 34.3249 31.6667 30.6249C31.4859 28.453 30.0721 26.5786 28.0333 25.8082Z" fill="#E22C3E"/>
<path fill-rule="evenodd" clip-rule="evenodd" d="M18.75 31.3582V24.1582C13.2615 23.497 9.23756 18.6754 9.56879 13.1571C9.90001 7.63886 14.4718 3.33325 20 3.33325C25.5282 3.33325 30.1 7.63886 30.4312 13.1571C30.7625 18.6754 26.7385 23.497 21.25 24.1582V31.3582C21.25 32.0486 20.6904 32.6082 20 32.6082C19.3097 32.6082 18.75 32.0486 18.75 31.3582ZM27.3737 10.7351C26.1364 7.75669 23.2253 5.81815 20 5.82489C15.6132 5.83406 12.0592 9.38803 12.05 13.7749C12.0433 17.0001 13.9818 19.9112 16.9603 21.1486C19.9387 22.3859 23.3694 21.7054 25.6499 19.4248C27.9305 17.1442 28.6111 13.7136 27.3737 10.7351Z" fill="#E22C3E"/>
<path d="M15.9833 15.6249C16.6737 15.6249 17.2333 15.0652 17.2333 14.3749C17.2333 12.4603 18.7854 10.9082 20.7 10.9082C21.3904 10.9082 21.95 10.3486 21.95 9.65822C21.95 8.96787 21.3904 8.40822 20.7 8.40822C19.1131 8.41264 17.593 9.04726 16.474 10.1725C15.3551 11.2977 14.7289 12.8213 14.7333 14.4082C14.7377 14.7353 14.8719 15.0473 15.1063 15.2755C15.3408 15.5036 15.6562 15.6293 15.9833 15.6249Z" fill="#E22C3E"/>
</svg>
