<svg width="40" height="40" viewBox="0 0 40 40" fill="none" xmlns="http://www.w3.org/2000/svg">
<path fill-rule="evenodd" clip-rule="evenodd" d="M33.8 6.36661L36.5667 14.0499C37.1686 15.5377 37.0198 17.2239 36.1667 18.5833C35.4407 19.6135 34.3903 20.3705 33.1833 20.7333V32.0666C33.1571 33.3397 32.626 34.5503 31.707 35.4317C30.788 36.3132 29.5565 36.7934 28.2833 36.7666H12.1833C10.8944 36.8161 9.63952 36.3465 8.69969 35.463C7.75986 34.5796 7.21363 33.3561 7.18333 32.0666V20.8999C6.00992 20.6312 4.95302 19.9947 4.16667 19.0833C3.03598 17.6719 2.75556 15.7599 3.43333 14.0833L6.18333 6.38327C6.8319 4.74113 8.43486 3.67691 10.2 3.71661H29.7833C31.5457 3.66937 33.15 4.7278 33.8 6.36661ZM22.2524 34.0499H22.2667V34.0999C22.2616 34.0833 22.2569 34.0667 22.2524 34.0499ZM22.2524 34.0499H18.0167C18.0325 33.9227 18.0325 33.7939 18.0167 33.6666V30.1499C18.0457 29.6211 18.2904 29.1274 18.6936 28.784C19.0969 28.4406 19.6233 28.2777 20.15 28.3333C21.1974 28.2565 22.1115 29.0368 22.2 30.0833V33.6499C22.2 33.7851 22.2176 33.9195 22.2524 34.0499ZM28.2 34.0499H24.6833C24.6992 33.9227 24.6992 33.7939 24.6833 33.6666V30.1499C24.5928 27.6958 22.538 25.775 20.0833 25.8499C17.6222 25.7656 15.5571 27.689 15.4667 30.1499V33.7166C15.4508 33.8439 15.4508 33.9727 15.4667 34.0999H12.1C10.8723 34.1566 9.82956 33.2107 9.76667 31.9833V20.8666C11.9873 20.5314 13.7707 18.8606 14.25 16.6666C14.837 19.3284 17.2801 21.1625 20 20.9833C22.6708 21.0952 25.0375 19.2763 25.6167 16.6666C26.0856 18.9988 28.0171 20.7547 30.3833 20.9999V32.0666C30.2814 33.2024 29.3402 34.079 28.2 34.0999V34.0499ZM31.5333 18.0666C32.4169 18.0434 33.2355 17.5969 33.7333 16.8666V16.9166C34.0791 16.3339 34.1226 15.6202 33.85 14.9999L31.1 7.41661C30.856 6.92064 30.3344 6.6235 29.7833 6.66661H10.2C9.66984 6.61813 9.16069 6.88576 8.9 7.34994L6.15 14.9999C5.7926 15.7073 5.85678 16.5545 6.31667 17.1999C6.73207 17.7104 7.3298 18.0391 7.98333 18.1166C8.19373 18.1411 8.40627 18.1411 8.61667 18.1166C9.8991 18.1867 11.0573 17.3544 11.4 16.1166C11.6543 14.7078 12.8686 13.6749 14.3 13.6499C15.7468 13.6493 16.978 14.7036 17.2 16.1333C17.5393 17.3787 18.7126 18.2098 20 18.1166C21.298 18.2031 22.4711 17.3461 22.7833 16.0833C23.0244 14.6643 24.2442 13.6198 25.6833 13.5999C27.1248 13.598 28.354 14.6435 28.5833 16.0666C28.9229 17.3212 30.1036 18.1596 31.4 18.0666H31.5333Z" fill="#E22C3E"/>
</svg>
