<svg width="174" height="64" viewBox="0 0 174 64" fill="none" xmlns="http://www.w3.org/2000/svg">
<path d="M62.3547 36.1935C60.552 36.1935 58.8747 35.874 57.323 35.235C55.7713 34.5961 54.4135 33.7061 53.2497 32.5651C52.1087 31.4242 51.2073 30.1006 50.5456 28.5945C49.9066 27.0656 49.5871 25.4226 49.5871 23.6655C49.5871 21.8855 49.9066 20.2425 50.5456 18.7364C51.1845 17.2303 52.0745 15.9182 53.2155 14.8C54.3793 13.659 55.7256 12.7805 57.2545 12.1644C58.8063 11.5254 60.4835 11.2059 62.2863 11.2059C64.1119 11.2059 65.7891 11.5254 67.318 12.1644C68.8698 12.7805 70.2161 13.659 71.3571 14.8C72.5209 15.9182 73.4223 17.2417 74.0612 18.7706C74.7002 20.2767 75.0197 21.9198 75.0197 23.6997C75.0197 25.4568 74.7002 27.0998 74.0612 28.6287C73.4223 30.1348 72.5209 31.4584 71.3571 32.5994C70.2161 33.7175 68.8812 34.5961 67.3522 35.235C65.8233 35.874 64.1575 36.1935 62.3547 36.1935ZM62.2863 31.2986C63.7467 31.2986 65.0132 30.9792 66.0858 30.3402C67.1583 29.7013 67.9912 28.8113 68.5845 27.6703C69.2006 26.5065 69.5087 25.1716 69.5087 23.6655C69.5087 22.5245 69.3376 21.4976 68.9953 20.5848C68.653 19.6492 68.1623 18.8505 67.5234 18.1887C66.8844 17.5042 66.12 16.9907 65.23 16.6484C64.3629 16.2833 63.3816 16.1007 62.2863 16.1007C60.8486 16.1007 59.5936 16.4202 58.521 17.0592C57.4485 17.6753 56.6042 18.5539 55.9881 19.6948C55.3947 20.813 55.0981 22.1366 55.0981 23.6655C55.0981 24.8065 55.2692 25.8447 55.6115 26.7804C55.9538 27.716 56.4444 28.5261 57.0834 29.2106C57.7223 29.8724 58.4754 30.3859 59.3425 30.751C60.2325 31.1161 61.2138 31.2986 62.2863 31.2986ZM73.137 37.6996L61.8413 26.4038L64.9562 23.2889L76.2519 34.5847L73.137 37.6996ZM79.0654 35.7827V11.6167H84.4395V35.7827H79.0654ZM83.173 26.3011V21.6802H95.256V26.3011H83.173ZM83.173 16.2377V11.6167H95.8037V16.2377H83.173ZM95.5025 35.7827L105.087 11.6167H109.947L119.429 35.7827H113.747L106.49 15.7242H108.441L101.082 35.7827H95.5025ZM100.945 31.4013V27.02H114.123V31.4013H100.945ZM126.094 26.9857V22.8097H131.296C131.958 22.8097 132.563 22.6728 133.111 22.399C133.658 22.1251 134.092 21.7258 134.411 21.2009C134.731 20.6761 134.891 20.0371 134.891 19.2841C134.891 18.5539 134.731 17.9263 134.411 17.4015C134.092 16.8766 133.658 16.4773 133.111 16.2034C132.563 15.9296 131.958 15.7927 131.296 15.7927H126.094V11.6167H132.084C133.613 11.6167 134.993 11.9247 136.225 12.5409C137.458 13.157 138.428 14.047 139.135 15.2108C139.865 16.3518 140.23 17.7095 140.23 19.2841C140.23 20.8586 139.865 22.2278 139.135 23.3916C138.428 24.5326 137.458 25.4226 136.225 26.0615C134.993 26.6777 133.613 26.9857 132.084 26.9857H126.094ZM121.986 35.7827V11.6167H127.36V35.7827H121.986Z" fill="#071F31"/>
<path d="M55.4375 45.9107V45.209H57.0549C57.2774 45.209 57.4742 45.1634 57.6453 45.0721C57.8222 44.9808 57.9591 44.8524 58.0561 44.687C58.1588 44.5216 58.2101 44.3247 58.2101 44.0965C58.2101 43.8683 58.1588 43.6715 58.0561 43.5061C57.9591 43.3406 57.8222 43.2123 57.6453 43.121C57.4742 43.0297 57.2774 42.9841 57.0549 42.9841H55.4375V42.2824H57.1062C57.4713 42.2824 57.7965 42.3565 58.0818 42.5049C58.3727 42.6532 58.6009 42.8643 58.7664 43.1381C58.9375 43.4062 59.0231 43.7257 59.0231 44.0965C59.0231 44.4617 58.9375 44.7811 58.7664 45.055C58.6009 45.3231 58.3727 45.5342 58.0818 45.6882C57.7965 45.8365 57.4713 45.9107 57.1062 45.9107H55.4375ZM54.8984 48.2212V42.2824H55.7028V48.2212H54.8984ZM61.4457 48.3068C61.0749 48.3068 60.7383 48.2155 60.4359 48.0329C60.1336 47.8447 59.8939 47.5908 59.7171 47.2713C59.5459 46.9518 59.4604 46.5924 59.4604 46.1931C59.4604 45.7937 59.5459 45.4343 59.7171 45.1149C59.8939 44.7954 60.1307 44.5415 60.4274 44.3533C60.7297 44.165 61.0692 44.0709 61.4457 44.0709C61.7537 44.0709 62.0276 44.1365 62.2672 44.2677C62.5125 44.3932 62.7093 44.57 62.8577 44.7982C63.006 45.0207 63.0887 45.2803 63.1058 45.577V46.8007C63.0887 47.0916 63.006 47.3512 62.8577 47.5794C62.715 47.8076 62.5211 47.9873 62.2757 48.1185C62.0361 48.244 61.7595 48.3068 61.4457 48.3068ZM61.574 47.5794C61.9563 47.5794 62.2643 47.451 62.4982 47.1943C62.7321 46.9319 62.8491 46.5981 62.8491 46.1931C62.8491 45.9136 62.7949 45.6711 62.6865 45.4657C62.5838 45.2546 62.4355 45.092 62.2415 44.9779C62.0476 44.8581 61.8222 44.7982 61.5655 44.7982C61.3088 44.7982 61.0806 44.8581 60.8809 44.9779C60.6869 45.0977 60.5329 45.2632 60.4188 45.4743C60.3104 45.6797 60.2562 45.9164 60.2562 46.1845C60.2562 46.4584 60.3104 46.7008 60.4188 46.9119C60.5329 47.1173 60.6898 47.2799 60.8895 47.3997C61.0891 47.5195 61.3173 47.5794 61.574 47.5794ZM62.7977 48.2212V47.1258L62.9432 46.1332L62.7977 45.1491V44.1564H63.5765V48.2212H62.7977ZM64.6978 48.2212V44.1564H65.4679V48.2212H64.6978ZM65.4679 45.9021L65.177 45.7738C65.177 45.2546 65.2968 44.841 65.5364 44.533C65.776 44.2249 66.1211 44.0709 66.5718 44.0709C66.7772 44.0709 66.9626 44.1079 67.128 44.1821C67.2935 44.2506 67.4475 44.3675 67.5901 44.533L67.0853 45.055C66.9997 44.9637 66.9056 44.8981 66.8029 44.8581C66.7002 44.8182 66.5804 44.7982 66.4435 44.7982C66.1582 44.7982 65.9243 44.8895 65.7418 45.0721C65.5592 45.2546 65.4679 45.5313 65.4679 45.9021ZM70.0628 48.2212V42.1112H70.833V48.2212H70.0628ZM73.6884 48.3068C73.3176 48.3068 72.981 48.2155 72.6786 48.0329C72.3763 47.8447 72.1367 47.5908 71.9598 47.2713C71.7887 46.9518 71.7031 46.5924 71.7031 46.1931C71.7031 45.7937 71.7887 45.4343 71.9598 45.1149C72.1367 44.7954 72.3734 44.5415 72.6701 44.3533C72.9724 44.165 73.3119 44.0709 73.6884 44.0709C73.9965 44.0709 74.2703 44.1365 74.5099 44.2677C74.7552 44.3932 74.9521 44.57 75.1004 44.7982C75.2487 45.0207 75.3314 45.2803 75.3485 45.577V46.8007C75.3314 47.0916 75.2487 47.3512 75.1004 47.5794C74.9578 47.8076 74.7638 47.9873 74.5185 48.1185C74.2789 48.244 74.0022 48.3068 73.6884 48.3068ZM73.8168 47.5794C74.199 47.5794 74.5071 47.451 74.741 47.1943C74.9749 46.9319 75.0918 46.5981 75.0918 46.1931C75.0918 45.9136 75.0376 45.6711 74.9292 45.4657C74.8265 45.2546 74.6782 45.092 74.4843 44.9779C74.2903 44.8581 74.0649 44.7982 73.8082 44.7982C73.5515 44.7982 73.3233 44.8581 73.1236 44.9779C72.9297 45.0977 72.7756 45.2632 72.6615 45.4743C72.5531 45.6797 72.4989 45.9164 72.4989 46.1845C72.4989 46.4584 72.5531 46.7008 72.6615 46.9119C72.7756 47.1173 72.9325 47.2799 73.1322 47.3997C73.3319 47.5195 73.5601 47.5794 73.8168 47.5794ZM75.0405 48.2212V47.1258L75.186 46.1332L75.0405 45.1491V44.1564H75.8192V48.2212H75.0405ZM80.8598 48.3068C80.5518 48.3068 80.2722 48.244 80.0212 48.1185C79.7759 47.9873 79.5791 47.8076 79.4307 47.5794C79.2824 47.3512 79.1997 47.0916 79.1826 46.8007V45.577C79.1997 45.2803 79.2824 45.0207 79.4307 44.7982C79.5848 44.57 79.7845 44.3932 80.0298 44.2677C80.2808 44.1365 80.5575 44.0709 80.8598 44.0709C81.2307 44.0709 81.5644 44.165 81.861 44.3533C82.1634 44.5415 82.4002 44.7954 82.5713 45.1149C82.7425 45.4343 82.828 45.7937 82.828 46.1931C82.828 46.5924 82.7425 46.9518 82.5713 47.2713C82.4002 47.5908 82.1634 47.8447 81.861 48.0329C81.5644 48.2155 81.2307 48.3068 80.8598 48.3068ZM80.7315 47.5794C80.9882 47.5794 81.2135 47.5195 81.4075 47.3997C81.6015 47.2799 81.7555 47.1173 81.8696 46.9119C81.9837 46.7008 82.0408 46.4584 82.0408 46.1845C82.0408 45.9164 81.9837 45.6768 81.8696 45.4657C81.7555 45.2546 81.6015 45.092 81.4075 44.9779C81.2135 44.8581 80.991 44.7982 80.74 44.7982C80.4833 44.7982 80.258 44.8581 80.064 44.9779C79.87 45.092 79.7188 45.2546 79.6105 45.4657C79.5021 45.6768 79.4479 45.9193 79.4479 46.1931C79.4479 46.4612 79.4992 46.7008 79.6019 46.9119C79.7103 47.1173 79.8615 47.2799 80.0554 47.3997C80.2551 47.5195 80.4805 47.5794 80.7315 47.5794ZM78.7205 48.2212V42.1112H79.4907V45.1491L79.3452 46.1332L79.4907 47.1258V48.2212H78.7205ZM85.4297 48.3068C85.0589 48.3068 84.7223 48.2155 84.42 48.0329C84.1176 47.8447 83.878 47.5908 83.7011 47.2713C83.53 46.9518 83.4444 46.5924 83.4444 46.1931C83.4444 45.7937 83.53 45.4343 83.7011 45.1149C83.878 44.7954 84.1148 44.5415 84.4114 44.3533C84.7138 44.165 85.0532 44.0709 85.4297 44.0709C85.7378 44.0709 86.0116 44.1365 86.2512 44.2677C86.4966 44.3932 86.6934 44.57 86.8417 44.7982C86.99 45.0207 87.0728 45.2803 87.0899 45.577V46.8007C87.0728 47.0916 86.99 47.3512 86.8417 47.5794C86.6991 47.8076 86.5051 47.9873 86.2598 48.1185C86.0202 48.244 85.7435 48.3068 85.4297 48.3068ZM85.5581 47.5794C85.9403 47.5794 86.2484 47.451 86.4823 47.1943C86.7162 46.9319 86.8331 46.5981 86.8331 46.1931C86.8331 45.9136 86.779 45.6711 86.6706 45.4657C86.5679 45.2546 86.4195 45.092 86.2256 44.9779C86.0316 44.8581 85.8063 44.7982 85.5495 44.7982C85.2928 44.7982 85.0646 44.8581 84.865 44.9779C84.671 45.0977 84.517 45.2632 84.4029 45.4743C84.2945 45.6797 84.2403 45.9164 84.2403 46.1845C84.2403 46.4584 84.2945 46.7008 84.4029 46.9119C84.517 47.1173 84.6738 47.2799 84.8735 47.3997C85.0732 47.5195 85.3014 47.5794 85.5581 47.5794ZM86.7818 48.2212V47.1258L86.9273 46.1332L86.7818 45.1491V44.1564H87.5605V48.2212H86.7818ZM91.5571 48.2212V45.8508C91.5571 45.5427 91.4601 45.2889 91.2661 45.0892C91.0722 44.8895 90.8212 44.7897 90.5131 44.7897C90.3077 44.7897 90.1252 44.8353 89.9654 44.9266C89.8057 45.0179 89.6802 45.1434 89.5889 45.3031C89.4976 45.4629 89.452 45.6454 89.452 45.8508L89.1354 45.6711C89.1354 45.363 89.2038 45.0892 89.3407 44.8496C89.4776 44.61 89.6688 44.4217 89.9141 44.2848C90.1594 44.1422 90.4361 44.0709 90.7441 44.0709C91.0522 44.0709 91.3232 44.1479 91.5571 44.3019C91.7967 44.4559 91.985 44.6585 92.1219 44.9095C92.2588 45.1548 92.3273 45.4172 92.3273 45.6968V48.2212H91.5571ZM88.6818 48.2212V44.1564H89.452V48.2212H88.6818ZM93.37 48.2212V42.1112H94.1401V48.2212H93.37ZM95.2755 48.2212V44.1564H96.0457V48.2212H95.2755ZM95.6606 43.3435C95.518 43.3435 95.401 43.2978 95.3098 43.2066C95.2185 43.1096 95.1728 42.9898 95.1728 42.8472C95.1728 42.7102 95.2185 42.5961 95.3098 42.5049C95.401 42.4079 95.518 42.3594 95.6606 42.3594C95.8032 42.3594 95.9202 42.4079 96.0115 42.5049C96.1027 42.5961 96.1484 42.7102 96.1484 42.8472C96.1484 42.9898 96.1027 43.1096 96.0115 43.2066C95.9202 43.2978 95.8032 43.3435 95.6606 43.3435ZM99.0633 48.3068C98.6583 48.3068 98.2931 48.2155 97.968 48.0329C97.6428 47.8447 97.3861 47.5908 97.1978 47.2713C97.0095 46.9518 96.9154 46.5896 96.9154 46.1845C96.9154 45.7852 97.0067 45.4258 97.1892 45.1063C97.3775 44.7868 97.6285 44.5358 97.9423 44.3533C98.2618 44.165 98.6183 44.0709 99.012 44.0709C99.3885 44.0709 99.7194 44.1564 100.005 44.3276C100.296 44.4987 100.521 44.7355 100.681 45.0378C100.846 45.3402 100.929 45.6825 100.929 46.0647C100.929 46.1218 100.926 46.1845 100.92 46.253C100.915 46.3157 100.903 46.3899 100.886 46.4755H97.4545V45.8337H100.475L100.193 46.0818C100.193 45.808 100.144 45.577 100.047 45.3887C99.9504 45.1947 99.8135 45.0464 99.6367 44.9437C99.4598 44.8353 99.2459 44.7811 98.9949 44.7811C98.7324 44.7811 98.5014 44.8382 98.3017 44.9523C98.102 45.0664 97.948 45.2261 97.8396 45.4315C97.7312 45.6369 97.677 45.8793 97.677 46.1589C97.677 46.4441 97.7341 46.6951 97.8482 46.9119C97.9623 47.123 98.1249 47.2884 98.3359 47.4082C98.547 47.5223 98.7895 47.5794 99.0633 47.5794C99.2915 47.5794 99.4997 47.5395 99.688 47.4596C99.882 47.3797 100.047 47.2599 100.184 47.1002L100.681 47.6051C100.487 47.8333 100.247 48.0073 99.9618 48.1271C99.6823 48.2469 99.3828 48.3068 99.0633 48.3068ZM103.403 48.3068C103.072 48.3068 102.773 48.2326 102.505 48.0843C102.242 47.9302 102.037 47.7192 101.888 47.451C101.74 47.1829 101.666 46.872 101.666 46.5183V44.1564H102.436V46.484C102.436 46.7065 102.473 46.9005 102.547 47.0659C102.627 47.2257 102.741 47.3483 102.89 47.4339C103.038 47.5195 103.212 47.5623 103.412 47.5623C103.714 47.5623 103.951 47.4681 104.122 47.2799C104.293 47.0859 104.379 46.8206 104.379 46.484V44.1564H105.149V46.5183C105.149 46.872 105.075 47.1829 104.926 47.451C104.778 47.7192 104.573 47.9302 104.31 48.0843C104.053 48.2326 103.751 48.3068 103.403 48.3068ZM108.064 48.3068C107.659 48.3068 107.293 48.2155 106.968 48.0329C106.643 47.8447 106.386 47.5908 106.198 47.2713C106.01 46.9518 105.916 46.5896 105.916 46.1845C105.916 45.7852 106.007 45.4258 106.19 45.1063C106.378 44.7868 106.629 44.5358 106.943 44.3533C107.262 44.165 107.619 44.0709 108.012 44.0709C108.389 44.0709 108.72 44.1564 109.005 44.3276C109.296 44.4987 109.521 44.7355 109.681 45.0378C109.846 45.3402 109.929 45.6825 109.929 46.0647C109.929 46.1218 109.926 46.1845 109.921 46.253C109.915 46.3157 109.903 46.3899 109.886 46.4755H106.455V45.8337H109.476L109.193 46.0818C109.193 45.808 109.145 45.577 109.048 45.3887C108.951 45.1947 108.814 45.0464 108.637 44.9437C108.46 44.8353 108.246 44.7811 107.995 44.7811C107.733 44.7811 107.502 44.8382 107.302 44.9523C107.102 45.0664 106.948 45.2261 106.84 45.4315C106.731 45.6369 106.677 45.8793 106.677 46.1589C106.677 46.4441 106.734 46.6951 106.848 46.9119C106.963 47.123 107.125 47.2884 107.336 47.4082C107.547 47.5223 107.79 47.5794 108.064 47.5794C108.292 47.5794 108.5 47.5395 108.688 47.4596C108.882 47.3797 109.048 47.2599 109.185 47.1002L109.681 47.6051C109.487 47.8333 109.247 48.0073 108.962 48.1271C108.683 48.2469 108.383 48.3068 108.064 48.3068ZM114.269 48.3068C113.892 48.3068 113.556 48.2155 113.259 48.0329C112.962 47.8447 112.726 47.5908 112.549 47.2713C112.378 46.9518 112.292 46.5924 112.292 46.1931C112.292 45.7937 112.378 45.4343 112.549 45.1149C112.726 44.7954 112.962 44.5415 113.259 44.3533C113.556 44.165 113.892 44.0709 114.269 44.0709C114.571 44.0709 114.845 44.1365 115.09 44.2677C115.336 44.3932 115.533 44.57 115.681 44.7982C115.835 45.0207 115.92 45.2803 115.938 45.577V46.8007C115.92 47.0916 115.838 47.3512 115.689 47.5794C115.541 47.8076 115.344 47.9873 115.099 48.1185C114.854 48.244 114.577 48.3068 114.269 48.3068ZM114.397 47.5794C114.654 47.5794 114.876 47.5195 115.065 47.3997C115.259 47.2799 115.41 47.1173 115.518 46.9119C115.627 46.7008 115.681 46.4612 115.681 46.1931C115.681 45.9136 115.624 45.6711 115.51 45.4657C115.401 45.2603 115.25 45.0977 115.056 44.9779C114.868 44.8581 114.645 44.7982 114.389 44.7982C114.132 44.7982 113.907 44.8581 113.713 44.9779C113.519 45.0977 113.365 45.2632 113.251 45.4743C113.142 45.6797 113.088 45.9164 113.088 46.1845C113.088 46.4584 113.142 46.7008 113.251 46.9119C113.365 47.1173 113.519 47.2799 113.713 47.3997C113.912 47.5195 114.141 47.5794 114.397 47.5794ZM116.408 48.2212H115.63V47.1258L115.775 46.1332L115.63 45.1491V42.1112H116.408V48.2212ZM119.412 48.3068C119.007 48.3068 118.642 48.2155 118.317 48.0329C117.992 47.8447 117.735 47.5908 117.547 47.2713C117.358 46.9518 117.264 46.5896 117.264 46.1845C117.264 45.7852 117.356 45.4258 117.538 45.1063C117.726 44.7868 117.977 44.5358 118.291 44.3533C118.611 44.165 118.967 44.0709 119.361 44.0709C119.737 44.0709 120.068 44.1564 120.353 44.3276C120.644 44.4987 120.87 44.7355 121.029 45.0378C121.195 45.3402 121.278 45.6825 121.278 46.0647C121.278 46.1218 121.275 46.1845 121.269 46.253C121.263 46.3157 121.252 46.3899 121.235 46.4755H117.803V45.8337H120.824L120.542 46.0818C120.542 45.808 120.493 45.577 120.396 45.3887C120.299 45.1947 120.162 45.0464 119.985 44.9437C119.809 44.8353 119.595 44.7811 119.344 44.7811C119.081 44.7811 118.85 44.8382 118.651 44.9523C118.451 45.0664 118.297 45.2261 118.188 45.4315C118.08 45.6369 118.026 45.8793 118.026 46.1589C118.026 46.4441 118.083 46.6951 118.197 46.9119C118.311 47.123 118.474 47.2884 118.685 47.4082C118.896 47.5223 119.138 47.5794 119.412 47.5794C119.64 47.5794 119.849 47.5395 120.037 47.4596C120.231 47.3797 120.396 47.2599 120.533 47.1002L121.029 47.6051C120.836 47.8333 120.596 48.0073 120.311 48.1271C120.031 48.2469 119.732 48.3068 119.412 48.3068ZM122.574 48.2212V43.5489C122.574 43.2465 122.64 42.9841 122.771 42.7616C122.902 42.5334 123.082 42.3537 123.31 42.2225C123.544 42.0913 123.815 42.0257 124.123 42.0257C124.357 42.0257 124.559 42.0656 124.73 42.1455C124.902 42.2253 125.058 42.3423 125.201 42.4963L124.696 42.9926C124.622 42.9128 124.539 42.8529 124.448 42.8129C124.357 42.7673 124.246 42.7445 124.114 42.7445C123.869 42.7445 123.678 42.8158 123.541 42.9584C123.41 43.101 123.344 43.2978 123.344 43.5489V48.2212H122.574ZM121.573 44.8581V44.1564H124.636V44.8581H121.573ZM126.905 48.3068C126.534 48.3068 126.197 48.2155 125.895 48.0329C125.592 47.8447 125.353 47.5908 125.176 47.2713C125.005 46.9518 124.919 46.5924 124.919 46.1931C124.919 45.7937 125.005 45.4343 125.176 45.1149C125.353 44.7954 125.59 44.5415 125.886 44.3533C126.189 44.165 126.528 44.0709 126.905 44.0709C127.213 44.0709 127.487 44.1365 127.726 44.2677C127.971 44.3932 128.168 44.57 128.317 44.7982C128.465 45.0207 128.548 45.2803 128.565 45.577V46.8007C128.548 47.0916 128.465 47.3512 128.317 47.5794C128.174 47.8076 127.98 47.9873 127.735 48.1185C127.495 48.244 127.218 48.3068 126.905 48.3068ZM127.033 47.5794C127.415 47.5794 127.723 47.451 127.957 47.1943C128.191 46.9319 128.308 46.5981 128.308 46.1931C128.308 45.9136 128.254 45.6711 128.145 45.4657C128.043 45.2546 127.894 45.092 127.7 44.9779C127.506 44.8581 127.281 44.7982 127.024 44.7982C126.768 44.7982 126.539 44.8581 126.34 44.9779C126.146 45.0977 125.992 45.2632 125.878 45.4743C125.769 45.6797 125.715 45.9164 125.715 46.1845C125.715 46.4584 125.769 46.7008 125.878 46.9119C125.992 47.1173 126.149 47.2799 126.348 47.3997C126.548 47.5195 126.776 47.5794 127.033 47.5794ZM128.257 48.2212V47.1258L128.402 46.1332L128.257 45.1491V44.1564H129.035V48.2212H128.257ZM131.552 48.2212L129.686 44.1564H130.542L132.039 47.5879H131.543L133.049 44.1564H133.871L132.005 48.2212H131.552ZM136.225 48.3068C135.826 48.3068 135.467 48.2126 135.147 48.0244C134.828 47.8361 134.574 47.5822 134.386 47.2628C134.197 46.9376 134.103 46.5753 134.103 46.176C134.103 45.7823 134.197 45.4286 134.386 45.1149C134.574 44.7954 134.828 44.5415 135.147 44.3533C135.467 44.165 135.826 44.0709 136.225 44.0709C136.619 44.0709 136.976 44.165 137.295 44.3533C137.62 44.5358 137.877 44.7868 138.065 45.1063C138.254 45.4258 138.348 45.7823 138.348 46.176C138.348 46.5753 138.254 46.9376 138.065 47.2628C137.877 47.5822 137.62 47.8361 137.295 48.0244C136.976 48.2126 136.619 48.3068 136.225 48.3068ZM136.225 47.5623C136.482 47.5623 136.71 47.5024 136.91 47.3826C137.11 47.2628 137.267 47.1002 137.381 46.8948C137.495 46.6837 137.552 46.4441 137.552 46.176C137.552 45.9136 137.492 45.6797 137.372 45.4743C137.258 45.2689 137.101 45.1092 136.901 44.9951C136.708 44.8753 136.482 44.8154 136.225 44.8154C135.969 44.8154 135.741 44.8753 135.541 44.9951C135.341 45.1092 135.184 45.2689 135.07 45.4743C134.956 45.6797 134.899 45.9136 134.899 46.176C134.899 46.4441 134.956 46.6837 135.07 46.8948C135.184 47.1002 135.341 47.2628 135.541 47.3826C135.741 47.5024 135.969 47.5623 136.225 47.5623ZM139.215 48.2212V44.1564H139.986V48.2212H139.215ZM139.986 45.9021L139.695 45.7738C139.695 45.2546 139.814 44.841 140.054 44.533C140.294 44.2249 140.639 44.0709 141.09 44.0709C141.295 44.0709 141.48 44.1079 141.646 44.1821C141.811 44.2506 141.965 44.3675 142.108 44.533L141.603 45.055C141.517 44.9637 141.423 44.8981 141.321 44.8581C141.218 44.8182 141.098 44.7982 140.961 44.7982C140.676 44.7982 140.442 44.8895 140.259 45.0721C140.077 45.2546 139.986 45.5313 139.986 45.9021ZM142.659 48.2212V44.1564H143.429V48.2212H142.659ZM143.044 43.3435C142.901 43.3435 142.784 43.2978 142.693 43.2066C142.602 43.1096 142.556 42.9898 142.556 42.8472C142.556 42.7102 142.602 42.5961 142.693 42.5049C142.784 42.4079 142.901 42.3594 143.044 42.3594C143.186 42.3594 143.303 42.4079 143.395 42.5049C143.486 42.5961 143.532 42.7102 143.532 42.8472C143.532 42.9898 143.486 43.1096 143.395 43.2066C143.303 43.2978 143.186 43.3435 143.044 43.3435ZM145.856 48.3068C145.628 48.3068 145.411 48.2782 145.206 48.2212C145.006 48.1584 144.821 48.0729 144.649 47.9645C144.478 47.8504 144.33 47.7163 144.204 47.5623L144.701 47.0659C144.849 47.2485 145.02 47.3854 145.214 47.4767C145.408 47.5623 145.625 47.6051 145.865 47.6051C146.104 47.6051 146.29 47.5651 146.421 47.4853C146.552 47.3997 146.618 47.2827 146.618 47.1344C146.618 46.9861 146.563 46.872 146.455 46.7921C146.352 46.7065 146.218 46.6381 146.053 46.5867C145.887 46.5297 145.711 46.4755 145.522 46.4241C145.34 46.3671 145.166 46.2958 145 46.2102C144.835 46.1246 144.698 46.0077 144.589 45.8594C144.487 45.711 144.435 45.5142 144.435 45.2689C144.435 45.0236 144.495 44.8125 144.615 44.6357C144.735 44.4531 144.9 44.3133 145.111 44.2163C145.328 44.1194 145.588 44.0709 145.89 44.0709C146.21 44.0709 146.492 44.1279 146.737 44.242C146.988 44.3504 147.194 44.5158 147.354 44.7383L146.857 45.2347C146.743 45.0863 146.6 44.9722 146.429 44.8924C146.264 44.8125 146.076 44.7726 145.865 44.7726C145.642 44.7726 145.471 44.8125 145.351 44.8924C145.237 44.9665 145.18 45.0721 145.18 45.209C145.18 45.3459 145.231 45.4515 145.334 45.5256C145.437 45.5998 145.571 45.6625 145.736 45.7139C145.907 45.7652 146.084 45.8194 146.267 45.8765C146.449 45.9278 146.623 45.9991 146.789 46.0904C146.954 46.1817 147.088 46.3043 147.191 46.4584C147.299 46.6124 147.354 46.8149 147.354 47.0659C147.354 47.4482 147.217 47.7505 146.943 47.973C146.675 48.1955 146.312 48.3068 145.856 48.3068ZM150.098 48.3068C149.693 48.3068 149.328 48.2155 149.003 48.0329C148.678 47.8447 148.421 47.5908 148.233 47.2713C148.045 46.9518 147.95 46.5896 147.95 46.1845C147.95 45.7852 148.042 45.4258 148.224 45.1063C148.413 44.7868 148.664 44.5358 148.977 44.3533C149.297 44.165 149.653 44.0709 150.047 44.0709C150.424 44.0709 150.754 44.1564 151.04 44.3276C151.331 44.4987 151.556 44.7355 151.716 45.0378C151.881 45.3402 151.964 45.6825 151.964 46.0647C151.964 46.1218 151.961 46.1845 151.955 46.253C151.95 46.3157 151.938 46.3899 151.921 46.4755H148.49V45.8337H151.51L151.228 46.0818C151.228 45.808 151.179 45.577 151.082 45.3887C150.985 45.1947 150.849 45.0464 150.672 44.9437C150.495 44.8353 150.281 44.7811 150.03 44.7811C149.767 44.7811 149.536 44.8382 149.337 44.9523C149.137 45.0664 148.983 45.2261 148.875 45.4315C148.766 45.6369 148.712 45.8793 148.712 46.1589C148.712 46.4441 148.769 46.6951 148.883 46.9119C148.997 47.123 149.16 47.2884 149.371 47.4082C149.582 47.5223 149.825 47.5794 150.098 47.5794C150.327 47.5794 150.535 47.5395 150.723 47.4596C150.917 47.3797 151.082 47.2599 151.219 47.1002L151.716 47.6051C151.522 47.8333 151.282 48.0073 150.997 48.1271C150.717 48.2469 150.418 48.3068 150.098 48.3068ZM149.525 43.5489L149.174 43.198L150.287 41.8203L150.894 42.4278L149.525 43.5489ZM154.686 48.3068C154.281 48.3068 153.916 48.2155 153.591 48.0329C153.266 47.8447 153.009 47.5908 152.821 47.2713C152.632 46.9518 152.538 46.5896 152.538 46.1845C152.538 45.7852 152.63 45.4258 152.812 45.1063C153 44.7868 153.251 44.5358 153.565 44.3533C153.885 44.165 154.241 44.0709 154.635 44.0709C155.011 44.0709 155.342 44.1564 155.628 44.3276C155.919 44.4987 156.144 44.7355 156.304 45.0378C156.469 45.3402 156.552 45.6825 156.552 46.0647C156.552 46.1218 156.549 46.1845 156.543 46.253C156.538 46.3157 156.526 46.3899 156.509 46.4755H153.077V45.8337H156.098L155.816 46.0818C155.816 45.808 155.767 45.577 155.67 45.3887C155.573 45.1947 155.436 45.0464 155.26 44.9437C155.083 44.8353 154.869 44.7811 154.618 44.7811C154.355 44.7811 154.124 44.8382 153.925 44.9523C153.725 45.0664 153.571 45.2261 153.463 45.4315C153.354 45.6369 153.3 45.8793 153.3 46.1589C153.3 46.4441 153.357 46.6951 153.471 46.9119C153.585 47.123 153.748 47.2884 153.959 47.4082C154.17 47.5223 154.412 47.5794 154.686 47.5794C154.914 47.5794 155.123 47.5395 155.311 47.4596C155.505 47.3797 155.67 47.2599 155.807 47.1002L156.304 47.6051C156.11 47.8333 155.87 48.0073 155.585 48.1271C155.305 48.2469 155.006 48.3068 154.686 48.3068Z" fill="#071F31"/>
<path d="M16.2234 14.9613C16.9089 14.9523 17.4624 14.3988 17.4713 13.7133V8.85464C17.4713 8.16542 16.9126 7.60669 16.2234 7.60669C15.5341 7.60669 14.9754 8.16542 14.9754 8.85464V13.7133C14.9754 14.4026 15.5341 14.9613 16.2234 14.9613Z" fill="#E22C3E"/>
<path d="M7.4351 11.6474C7.91034 11.1721 8.67659 11.1586 9.16829 11.6168L12.6626 15.0445C12.9004 15.2762 13.0346 15.5943 13.0346 15.9264C13.0346 16.2585 12.9004 16.5765 12.6626 16.8082C12.4309 17.0455 12.1123 17.1778 11.7807 17.1743C11.4266 17.1946 11.0809 17.0612 10.8322 16.8082L7.40452 13.3805C6.94635 12.8888 6.95986 12.1226 7.4351 11.6474Z" fill="#E22C3E"/>
<path d="M18.8524 19.5205L34.0774 24.3459C35.1559 24.6699 35.9442 25.5963 36.0913 26.7128C36.2385 27.8292 35.7173 28.9283 34.7596 29.5207L29.435 32.8486C29.0913 33.0758 28.797 33.3701 28.5698 33.7138L25.2419 39.0384C24.6327 39.9732 23.5358 40.4687 22.4317 40.3079C21.3276 40.1471 20.4176 39.3593 20.1003 38.2896L15.3248 23.048C14.9963 22.0465 15.259 20.9453 16.0043 20.1999C16.7496 19.4546 17.8508 19.1919 18.8524 19.5205Z" fill="#E22C3E"/>
<path d="M21.7643 14.5287C21.5224 14.7608 21.201 14.8917 20.8657 14.8947C20.526 14.8734 20.2087 14.7177 19.9839 14.4621C19.746 14.2303 19.6119 13.9123 19.6119 13.5802C19.6119 13.2481 19.746 12.9301 19.9839 12.6983L23.4282 9.37046C23.6458 9.12408 23.9528 8.9749 24.2809 8.95615C24.6091 8.9374 24.9311 9.05063 25.1753 9.27062C25.662 9.75785 25.662 10.5472 25.1753 11.0344L21.7643 14.5287Z" fill="#E22C3E"/>
<path d="M8.55263 24.1961L5.12493 27.6737C4.69348 28.1445 4.69348 28.8669 5.12493 29.3377C5.35874 29.5718 5.67595 29.7034 6.00681 29.7037C6.33627 29.6966 6.65101 29.5659 6.8887 29.3377L10.3164 26.0098C10.803 25.5226 10.803 24.7333 10.3164 24.246C10.0914 24.0015 9.7772 23.8583 9.44505 23.8489C9.11291 23.8395 8.79107 23.9647 8.55263 24.1961Z" fill="#E22C3E"/>
<path d="M4.57583 19.2542H9.43452C10.1237 19.2542 10.6825 19.813 10.6825 20.5022C10.6825 21.1914 10.1237 21.7501 9.43452 21.7501H4.57583C3.88661 21.7501 3.32788 21.1914 3.32788 20.5022C3.32788 19.813 3.88661 19.2542 4.57583 19.2542Z" fill="#E22C3E"/>
</svg>
