<svg width="32" height="32" viewBox="0 0 32 32" fill="none" xmlns="http://www.w3.org/2000/svg">
<path d="M4.45341 6.317C5.39354 7.36789 6.43902 8.31954 7.57341 9.157C8.63236 9.85874 9.76877 10.4359 10.9601 10.877C11.9158 11.2269 12.9024 11.4858 13.9067 11.6503L15.2401 11.757C14.9176 10.3066 15.2069 8.78731 16.0401 7.557C16.9091 6.3755 18.2061 5.58106 19.6534 5.34367C20.74 5.28132 21.8242 5.50183 22.8001 5.98367C24.0267 6.70367 24.1334 6.97033 24.1334 6.97033C24.8596 6.83923 25.5671 6.61983 26.2401 6.317L27.3867 5.70367C27.1851 6.39521 26.8244 7.02993 26.3334 7.557C25.6801 8.157 25.0801 8.597 25.0801 8.597C25.673 8.58928 26.2599 8.47642 26.8134 8.26367L28.1467 7.78367C27.711 8.41619 27.2105 9.00158 26.6534 9.53033C26.0134 10.037 25.4934 10.5037 25.4934 10.5037C25.6542 13.2268 25.0294 15.9387 23.6934 18.317C22.6906 20.2513 21.2474 21.9228 19.4801 23.197C17.7608 24.451 15.7842 25.3072 13.6934 25.7037C12.0661 26.001 10.4042 26.0594 8.76008 25.877C7.44062 25.6763 6.148 25.3275 4.90675 24.837C4.09466 24.5797 3.33579 24.1777 2.66675 23.6503C4.19587 23.8608 5.75304 23.7101 7.21341 23.2103C8.33798 22.7698 9.40382 22.1921 10.3867 21.4903C9.64234 21.4838 8.90885 21.3107 8.24008 20.9837C7.41296 20.593 6.70777 19.9846 6.20008 19.2237C5.98405 18.8983 5.79668 18.5548 5.64008 18.197L5.54675 17.8637C5.90845 17.9527 6.28191 17.9842 6.65341 17.957L7.88008 17.7703C6.81523 17.5718 5.84533 17.0282 5.12008 16.2237C4.33494 15.3754 3.86434 14.2836 3.78675 13.1303V12.5837C4.19962 12.832 4.64985 13.0121 5.12008 13.117C5.44084 13.2075 5.77364 13.248 6.10675 13.237C5.08456 12.5818 4.32846 11.5847 3.97341 10.4237C3.57471 9.04592 3.74773 7.56566 4.45341 6.317Z" fill="#E22C3E"/>
</svg>
